<svg xmlns="http://www.w3.org/2000/svg" viewBox="0 0 80.05 95.76"><defs><style>.cls-1{fill:none;stroke:#000;stroke-linejoin:round;stroke-width:3px;}</style></defs><title>Asset 3</title><g id="Layer_2" data-name="Layer 2"><g id="Layer_2-2" data-name="Layer 2"><ellipse class="cls-1" cx="40.02" cy="7.39" rx="29" ry="5.89"/><path class="cls-1" d="M69,7.39,64.81,61.5c0,2.78-11.09,5-24.79,5s-24.78-2.26-24.78-5L11,7.39"/><path class="cls-1" d="M65.28,55.48c8.14,2.4,13.27,5.94,13.27,9.89,0,7.23-17.26,13.09-38.53,13.09S1.5,72.6,1.5,65.37c0-4,5.15-7.49,13.27-9.89"/><polygon class="cls-1" points="40.02 22.93 44.44 33.25 55.62 34.26 47.17 41.65 49.66 52.6 40.02 46.84 30.39 52.6 32.88 41.65 24.43 34.26 35.61 33.25 40.02 22.93"/><rect class="cls-1" x="1.5" y="85.68" width="77.05" height="8.59" rx="2.17"/><line class="cls-1" x1="64.01" y1="85.68" x2="64.01" y2="94.26"/></g></g></svg>