<svg xmlns="http://www.w3.org/2000/svg" viewBox="0 0 96.09 85.21"><defs><style>.cls-1,.cls-2{fill:none;stroke:#000;stroke-width:3px;}.cls-1{stroke-miterlimit:10;}.cls-2{stroke-linecap:round;stroke-linejoin:round;}</style></defs><title>Asset 32</title><g id="Layer_2" data-name="Layer 2"><g id="Layer_2-2" data-name="Layer 2"><circle class="cls-1" cx="42.6" cy="42.6" r="41.1"/><circle class="cls-1" cx="42.6" cy="42.6" r="7.83"/><circle class="cls-1" cx="42.6" cy="18.66" r="9.75"/><circle class="cls-1" cx="42.6" cy="66.54" r="9.75"/><circle class="cls-1" cx="66.54" cy="42.6" r="9.75"/><circle class="cls-1" cx="18.66" cy="42.6" r="9.75"/><path class="cls-1" d="M65.42,32.92a24.91,24.91,0,0,1,0,19.37"/><path class="cls-1" d="M32.92,19.79a24.81,24.81,0,0,1,19.33,0"/><path class="cls-1" d="M19.79,52.29a24.79,24.79,0,0,1,0-19.37"/><path class="cls-1" d="M52.29,65.42a24.91,24.91,0,0,1-19.37,0"/><path class="cls-2" d="M43.89,83.71H90.37a4.22,4.22,0,0,0,4.22-4.23V75.74a4.22,4.22,0,0,0-4.22-4.22H71.81"/></g></g></svg>