<svg xmlns="http://www.w3.org/2000/svg" viewBox="0 0 78.57 92.99"><defs><style>.cls-1{fill:none;stroke:#000;stroke-linejoin:round;stroke-width:3px;}</style></defs><title>Asset 21</title><g id="Layer_2" data-name="Layer 2"><g id="Layer_2-2" data-name="Layer 2"><path class="cls-1" d="M3.6,37.13H57.34a2.1,2.1,0,0,1,2.1,2.1V76a5.67,5.67,0,0,1-5.67,5.67H7.17A5.67,5.67,0,0,1,1.5,76V39.23A2.1,2.1,0,0,1,3.6,37.13Z"/><path class="cls-1" d="M9,81.7H51.94a0,0,0,0,1,0,0v7.69a2.1,2.1,0,0,1-2.1,2.1H11.1A2.1,2.1,0,0,1,9,89.39V81.7A0,0,0,0,1,9,81.7Z"/><path class="cls-1" d="M59.44,42.82H71.54a5.54,5.54,0,0,1,5.54,5.54v5.72A11.49,11.49,0,0,1,65.58,65.56H59.44a0,0,0,0,1,0,0V42.82A0,0,0,0,1,59.44,42.82Z"/><polyline class="cls-1" points="53.48 20.07 53.48 37.13 44.76 37.13 44.76 20.07"/><path class="cls-1" d="M56.25,14.44a7.13,7.13,0,0,1-14.25,0C42,10.51,49.12,1.5,49.12,1.5S56.25,10.51,56.25,14.44Z"/><polyline class="cls-1" points="34.83 20.07 34.83 37.13 26.11 37.13 26.11 20.07"/><path class="cls-1" d="M37.59,14.44a7.12,7.12,0,0,1-14.24,0c0-3.93,7.12-12.94,7.12-12.94S37.59,10.51,37.59,14.44Z"/><polyline class="cls-1" points="16.18 20.07 16.18 37.13 7.45 37.13 7.45 20.07"/><path class="cls-1" d="M18.94,14.44a7.12,7.12,0,0,1-14.24,0c0-3.93,7.12-12.94,7.12-12.94S18.94,10.51,18.94,14.44Z"/><circle class="cls-1" cx="30.47" cy="59.41" r="11.38"/></g></g></svg>