<svg xmlns="http://www.w3.org/2000/svg" viewBox="0 0 96.12 96.12"><defs><style>.cls-1{fill:none;stroke:#000;stroke-linejoin:round;stroke-width:3px;}</style></defs><title>Asset 16</title><g id="Layer_2" data-name="Layer 2"><g id="Layer_2-2" data-name="Layer 2"><path class="cls-1" d="M4.13,1.5H31.42A2.63,2.63,0,0,1,34,4.13V78.35A16.27,16.27,0,0,1,17.77,94.62h0A16.27,16.27,0,0,1,1.5,78.35V4.13A2.63,2.63,0,0,1,4.13,1.5Z"/><line class="cls-1" x1="1.5" y1="63.15" x2="34.05" y2="63.15"/><line class="cls-1" x1="1.5" y1="42.5" x2="34.05" y2="42.5"/><line class="cls-1" x1="1.5" y1="21.86" x2="34.05" y2="21.86"/><circle class="cls-1" cx="17.77" cy="78.31" r="5.1"/><path class="cls-1" d="M57.1,62H90.53a4.09,4.09,0,0,1,4.09,4.09V90.5a4.09,4.09,0,0,1-4.09,4.09H17.77"/><line class="cls-1" x1="53.62" y1="65.52" x2="53.62" y2="94.59"/><line class="cls-1" x1="74.27" y1="62.04" x2="74.27" y2="94.59"/><path class="cls-1" d="M34.05,39.06,58.27,14.84a4.08,4.08,0,0,1,5.78,0L81.28,32.07a4.08,4.08,0,0,1,0,5.78l-52,52"/><line class="cls-1" x1="34.05" y1="42.5" x2="55.18" y2="63.96"/><line class="cls-1" x1="46.77" y1="26.34" x2="69.78" y2="49.36"/></g></g></svg>