<svg xmlns="http://www.w3.org/2000/svg" viewBox="0 0 85.45 96.05"><defs><style>.cls-1{fill:none;stroke:#000;stroke-linecap:round;stroke-linejoin:round;stroke-width:3px;}</style></defs><title>Asset 25</title><g id="Layer_2" data-name="Layer 2"><g id="Layer_2-2" data-name="Layer 2"><rect class="cls-1" x="1.5" y="25.23" width="82.45" height="69.32" rx="1.76"/><rect class="cls-1" x="11.74" y="34.72" width="61.96" height="50.34" rx="1.76"/><line class="cls-1" x1="73.71" y1="34.72" x2="83.22" y2="25.91"/><line class="cls-1" x1="73.71" y1="85.06" x2="83.22" y2="93.88"/><line class="cls-1" x1="11.74" y1="85.06" x2="2.23" y2="93.88"/><line class="cls-1" x1="11.74" y1="34.72" x2="2.23" y2="25.91"/><path class="cls-1" d="M11.74,63.47C45.65,54.83,41.62,72,57.64,74.38c15.64,2.32,16.07,1.46,16.07,1.46"/><path class="cls-1" d="M44.58,67.17a53.36,53.36,0,0,1,29.13-6.53"/><circle class="cls-1" cx="50.2" cy="50.07" r="6.14"/><line class="cls-1" x1="38.02" y1="10.16" x2="17.78" y2="25.23"/><line class="cls-1" x1="67.67" y1="25.23" x2="47.43" y2="10.16"/><circle class="cls-1" cx="42.73" cy="7.11" r="5.61"/></g></g></svg>