<svg xmlns="http://www.w3.org/2000/svg" viewBox="0 0 94.48 93.64"><defs><style>.cls-1,.cls-2{fill:none;stroke:#000;stroke-width:3px;}.cls-1{stroke-miterlimit:10;}.cls-2{stroke-linecap:round;stroke-linejoin:round;}</style></defs><title>Asset 12</title><g id="Layer_2" data-name="Layer 2"><g id="Layer_2-2" data-name="Layer 2"><path class="cls-1" d="M39.86,31.21A33.61,33.61,0,1,1,31.37,40"/><path class="cls-1" d="M47.87,39.23a22.44,22.44,0,1,1-8.41,8.88"/><line class="cls-1" x1="59.39" y1="24.95" x2="59.39" y2="36.06"/><line class="cls-1" x1="59.39" y1="81.03" x2="59.39" y2="92.14"/><line class="cls-1" x1="81.87" y1="58.55" x2="92.98" y2="58.55"/><line class="cls-1" x1="36.9" y1="58.55" x2="25.79" y2="58.55"/><path class="cls-2" d="M11.56.44h3.19A5.25,5.25,0,0,1,20,5.69V25.87a0,0,0,0,1,0,0H6.31a0,0,0,0,1,0,0V5.69A5.25,5.25,0,0,1,11.56.44Z" transform="translate(-5.45 13.16) rotate(-45)"/><rect class="cls-2" x="12.5" y="21.02" width="24.73" height="7.68" rx="2.81" transform="translate(-10.3 24.86) rotate(-45)"/><path class="cls-2" d="M40.29,19.78H52.51a0,0,0,0,1,0,0V66.9A6.11,6.11,0,0,1,46.4,73h0a6.11,6.11,0,0,1-6.11-6.11V19.78a0,0,0,0,1,0,0Z" transform="translate(-19.22 46.4) rotate(-45)"/><line class="cls-2" x1="65.22" y1="65.22" x2="69.96" y2="69.96"/></g></g></svg>