<svg xmlns="http://www.w3.org/2000/svg" viewBox="0 0 94.02 96.12"><defs><style>.cls-1,.cls-2{fill:none;stroke:#000;stroke-linejoin:round;stroke-width:3px;}.cls-2{stroke-linecap:round;}</style></defs><title>Asset 1</title><g id="Layer_2" data-name="Layer 2"><g id="Layer_2-2" data-name="Layer 2"><path class="cls-1" d="M35.75,35.72,22.69,66.84a9.18,9.18,0,0,0,4.92,12l2.38,1,15.7-37.42"/><line class="cls-2" x1="29.99" y1="79.87" x2="27.28" y2="86.32"/><path class="cls-1" d="M58.26,35.72,71.32,66.84a9.2,9.2,0,0,1-4.92,12l-2.38,1L48.33,42.45"/><line class="cls-2" x1="64.02" y1="79.87" x2="66.72" y2="86.32"/><circle class="cls-1" cx="47" cy="29.79" r="12.72"/><circle class="cls-1" cx="47" cy="29.79" r="4.74"/><path class="cls-1" d="M41.86,18.17V4.57A3.06,3.06,0,0,1,44.93,1.5h4.16a3.06,3.06,0,0,1,3.06,3.07v13.6"/><path class="cls-1" d="M59,37.46H86.5a6,6,0,0,1,6,6V88.6a6,6,0,0,1-6,6h-79a6,6,0,0,1-6-6V43.48a6,6,0,0,1,6-6H35"/></g></g></svg>