<svg xmlns="http://www.w3.org/2000/svg" viewBox="0 0 95.06 95.06"><defs><style>.cls-1,.cls-2{fill:none;stroke:#000;stroke-width:3px;}.cls-1{stroke-miterlimit:10;}.cls-2{stroke-linejoin:round;}</style></defs><title>Asset 28</title><g id="Layer_2" data-name="Layer 2"><g id="Layer_2-2" data-name="Layer 2"><rect class="cls-1" x="29.32" y="29.32" width="36.43" height="36.43" rx="4.95"/><circle class="cls-1" cx="47.53" cy="47.53" r="9.58"/><path class="cls-2" d="M71.29,1.5H23.78a2.27,2.27,0,0,0-2,3.41l14,24.41H59.24l14-24.41A2.28,2.28,0,0,0,71.29,1.5Z"/><path class="cls-2" d="M23.78,93.56H71.29a2.27,2.27,0,0,0,2-3.4l-14-24.41H35.82l-14,24.41A2.27,2.27,0,0,0,23.78,93.56Z"/><path class="cls-2" d="M93.56,71.29V23.78a2.27,2.27,0,0,0-3.4-2l-24.41,14V59.24l24.41,14A2.27,2.27,0,0,0,93.56,71.29Z"/><path class="cls-2" d="M1.5,23.78V71.29a2.28,2.28,0,0,0,3.41,2l24.41-14V35.82l-24.41-14A2.27,2.27,0,0,0,1.5,23.78Z"/></g></g></svg>