<svg xmlns="http://www.w3.org/2000/svg" viewBox="0 0 93.6 93.89"><defs><style>.cls-1{fill:none;stroke:#000;stroke-linejoin:round;stroke-width:3px;}</style></defs><title>Asset 18</title><g id="Layer_2" data-name="Layer 2"><g id="Layer_2-2" data-name="Layer 2"><path class="cls-1" d="M38.41,23.29,23.29,38.41,54.86,70a7.67,7.67,0,0,0,7,2.07h0a7.65,7.65,0,0,1,7,2.07l3.9,3.9a3.9,3.9,0,0,0,5.31.29,3.76,3.76,0,0,0,.15-5.45l-4-4a7.65,7.65,0,0,1-2.07-7h0a7.67,7.67,0,0,0-2.07-7Z"/><rect class="cls-1" x="12.86" y="23.42" width="29.83" height="8.7" rx="2.51" transform="translate(-11.51 27.78) rotate(-45)"/><path class="cls-1" d="M14.66.47h0A10.69,10.69,0,0,1,25.35,11.16V28.86a0,0,0,0,1,0,0H4a0,0,0,0,1,0,0V11.16A10.69,10.69,0,0,1,14.66.47Z" transform="translate(-6.07 14.66) rotate(-45)"/><path class="cls-1" d="M72.18,65.49a14,14,0,1,1-6.83,6.65"/><line class="cls-1" x1="31.03" y1="46.15" x2="61.27" y2="46.15"/></g></g></svg>