<svg xmlns="http://www.w3.org/2000/svg" viewBox="0 0 96.12 96.12"><defs><style>.cls-1,.cls-2{fill:none;stroke:#000;stroke-linejoin:round;stroke-width:3px;}.cls-2{stroke-linecap:round;}</style></defs><title>Asset 20</title><g id="Layer_2" data-name="Layer 2"><g id="Layer_2-2" data-name="Layer 2"><line class="cls-1" x1="40.62" y1="8.95" x2="16.38" y2="8.95"/><line class="cls-1" x1="87.19" y1="79.74" x2="87.19" y2="55.5"/><line class="cls-1" x1="40.62" y1="87.18" x2="16.38" y2="87.18"/><line class="cls-1" x1="8.94" y1="79.74" x2="8.94" y2="55.5"/><line class="cls-1" x1="79.74" y1="87.18" x2="55.5" y2="87.18"/><line class="cls-1" x1="87.19" y1="40.62" x2="87.19" y2="16.38"/><line class="cls-1" x1="8.94" y1="40.62" x2="8.94" y2="16.38"/><line class="cls-1" x1="79.74" y1="8.95" x2="55.5" y2="8.95"/><rect class="cls-1" x="1.5" y="1.5" width="14.88" height="14.88" rx="2.95"/><rect class="cls-1" x="40.62" y="1.5" width="14.88" height="14.88" rx="2.95"/><rect class="cls-1" x="79.74" y="1.5" width="14.88" height="14.88" rx="2.95"/><rect class="cls-1" x="1.5" y="40.62" width="14.88" height="14.88" rx="2.95"/><rect class="cls-1" x="79.74" y="40.62" width="14.88" height="14.88" rx="2.95"/><rect class="cls-1" x="1.5" y="79.74" width="14.88" height="14.88" rx="2.95"/><rect class="cls-1" x="40.62" y="79.74" width="14.88" height="14.88" rx="2.95"/><rect class="cls-1" x="79.74" y="79.74" width="14.88" height="14.88" rx="2.95"/><circle class="cls-1" cx="48.06" cy="48.06" r="8.23"/><line class="cls-2" x1="48.06" y1="39.83" x2="48.06" y2="30.48"/><line class="cls-2" x1="48.06" y1="65.64" x2="48.06" y2="56.29"/><line class="cls-2" x1="56.29" y1="48.06" x2="65.64" y2="48.06"/><line class="cls-2" x1="30.48" y1="48.06" x2="39.83" y2="48.06"/></g></g></svg>