<svg xmlns="http://www.w3.org/2000/svg" viewBox="0 0 53.14 95.31"><defs><style>.cls-1{fill:none;stroke:#000;stroke-linecap:round;stroke-linejoin:round;stroke-width:3px;}</style></defs><title>Asset 24</title><g id="Layer_2" data-name="Layer 2"><g id="Layer_2-2" data-name="Layer 2"><path class="cls-1" d="M19.35,28.92H33.79A17.85,17.85,0,0,1,51.64,46.76v22A25.07,25.07,0,0,1,26.57,93.81h0A25.07,25.07,0,0,1,1.5,68.74v-22A17.85,17.85,0,0,1,19.35,28.92Z"/><rect class="cls-1" x="22.65" y="38.56" width="7.83" height="16.06" rx="3.92"/><line class="cls-1" x1="26.57" y1="38.56" x2="26.57" y2="28.92"/><line class="cls-1" x1="26.57" y1="54.62" x2="26.57" y2="64.86"/><path class="cls-1" d="M19.33,20.23a10.25,10.25,0,0,1,14.48,0"/><path class="cls-1" d="M13.77,14.67a18.1,18.1,0,0,1,25.6,0"/><path class="cls-1" d="M8.21,9.11a26,26,0,0,1,36.72,0"/></g></g></svg>