<svg xmlns="http://www.w3.org/2000/svg" viewBox="0 0 93.04 93.04"><defs><style>.cls-1,.cls-2{fill:none;stroke:#000;stroke-linejoin:round;stroke-width:3px;}.cls-2{stroke-linecap:round;}</style></defs><title>Asset 31</title><g id="Layer_2" data-name="Layer 2"><g id="Layer_2-2" data-name="Layer 2"><rect class="cls-1" x="39.74" y="19.23" width="19.37" height="60.39" transform="translate(-20.47 49.43) rotate(-45)"/><rect class="cls-1" x="11.02" y="20.55" width="27.88" height="8.82" rx="3" transform="translate(-10.34 24.96) rotate(-45)"/><rect class="cls-1" x="4.78" y="14.31" width="27.88" height="8.82" rx="3" transform="translate(-7.76 18.72) rotate(-45)"/><polygon class="cls-1" points="70.78 70.78 63.93 77.63 91.54 91.54 77.63 63.93 70.78 70.78"/><path class="cls-1" d="M7.16,3.77h7.08a6.15,6.15,0,0,1,6.15,6.15v7.71a0,0,0,0,1,0,0H1a0,0,0,0,1,0,0V9.92A6.15,6.15,0,0,1,7.16,3.77Z" transform="translate(-4.43 10.7) rotate(-45)"/><line class="cls-2" x1="28.08" y1="28.08" x2="61.64" y2="61.64"/><line class="cls-2" x1="74.86" y1="83.14" x2="83.14" y2="74.86"/></g></g></svg>