<svg xmlns="http://www.w3.org/2000/svg" viewBox="0 0 66.54 96.12"><defs><style>.cls-1{fill:none;stroke:#000;stroke-linecap:round;stroke-linejoin:round;stroke-width:3px;}</style></defs><title>Asset 9</title><g id="Layer_2" data-name="Layer 2"><g id="Layer_2-2" data-name="Layer 2"><rect class="cls-1" x="1.5" y="12.08" width="63.54" height="46.15" rx="6.13"/><path class="cls-1" d="M29.29,58.23h8a0,0,0,0,1,0,0V91.62a3,3,0,0,1-3,3h-2a3,3,0,0,1-3-3V58.23a0,0,0,0,1,0,0Z"/><path class="cls-1" d="M27.9,58.23l-19,34.4a4,4,0,0,1-5.44,1.46h0A4,4,0,0,1,2,88.65L18.81,58.23"/><path class="cls-1" d="M38.64,58.23l19,34.4a4,4,0,0,0,5.44,1.46h0a4,4,0,0,0,1.46-5.44L47.73,58.23"/><path class="cls-1" d="M32.29,1.5h2a3,3,0,0,1,3,3v7.58a0,0,0,0,1,0,0h-8a0,0,0,0,1,0,0V4.5A3,3,0,0,1,32.29,1.5Z"/><line class="cls-1" x1="1.5" y1="47.88" x2="42.18" y2="47.88"/><line class="cls-1" x1="49.75" y1="47.88" x2="54.12" y2="47.88"/></g></g></svg>