<svg xmlns="http://www.w3.org/2000/svg" viewBox="0 0 66.76 96.38"><defs><style>.cls-1,.cls-2{fill:none;stroke:#000;stroke-linejoin:round;stroke-width:3px;}.cls-2{stroke-linecap:round;}</style></defs><title>Asset 14</title><g id="Layer_2" data-name="Layer 2"><g id="Layer_2-2" data-name="Layer 2"><rect class="cls-1" x="5.65" y="44.86" width="31.91" height="42.78"/><rect class="cls-1" x="1.5" y="37.63" width="40.2" height="7.23" rx="2.73"/><rect class="cls-1" x="1.5" y="87.64" width="40.2" height="7.23" rx="2.73"/><path class="cls-1" d="M13.88,25.93H29.33a7,7,0,0,1,7,7v4.75a0,0,0,0,1,0,0H6.92a0,0,0,0,1,0,0V32.88a7,7,0,0,1,7-7Z"/><rect class="cls-1" x="17.13" y="12.32" width="8.93" height="7.45" rx="1.21"/><line class="cls-1" x1="21.6" y1="19.76" x2="21.6" y2="25.93"/><path class="cls-1" d="M35.63,16,62.87,30.39A1.62,1.62,0,0,0,65.26,29V3.13a1.63,1.63,0,0,0-2.39-1.44Z"/><line class="cls-2" x1="48.33" y1="16.04" x2="49.4" y2="16.04"/><line class="cls-2" x1="57.27" y1="12.07" x2="58.33" y2="12.07"/><line class="cls-2" x1="57.27" y1="20.01" x2="58.33" y2="20.01"/><circle class="cls-1" cx="21.6" cy="66.25" r="8.63"/><line class="cls-2" x1="5.65" y1="51.14" x2="20.64" y2="51.14"/><line class="cls-2" x1="26.57" y1="51.14" x2="29.83" y2="51.14"/></g></g></svg>