<svg xmlns="http://www.w3.org/2000/svg" viewBox="0 0 86.54 95.03"><defs><style>.cls-1{fill:none;stroke:#000;stroke-linecap:round;stroke-linejoin:round;stroke-width:3px;}</style></defs><title>Asset 10</title><g id="Layer_2" data-name="Layer 2"><g id="Layer_2-2" data-name="Layer 2"><path class="cls-1" d="M42.2,2.45H52.33a0,0,0,0,1,0,0V18.12a0,0,0,0,1,0,0H42.2a5.53,5.53,0,0,1-5.53-5.53V8A5.53,5.53,0,0,1,42.2,2.45Z" transform="translate(20.31 -28.46) rotate(45)"/><path class="cls-1" d="M50.22,43.73l-7.49-14.1A6.49,6.49,0,0,1,43.87,22L56.4,9.46a6.48,6.48,0,0,1,7.32-1.3l15.09,7Z"/><path class="cls-1" d="M62.84,26.17H66a5.35,5.35,0,0,1,5.35,5.35v2.69A5.35,5.35,0,0,1,66,39.57H62.84a0,0,0,0,1,0,0V26.17A0,0,0,0,1,62.84,26.17Z" transform="translate(42.89 -37.81) rotate(45)"/><polyline class="cls-1" points="14.1 37.48 37.36 14.22 41.99 18.84 19.12 41.71"/><polyline class="cls-1" points="17.27 48.47 27.13 77.12 20.21 77.12 10.69 49.44"/><circle class="cls-1" cx="13.21" cy="43.73" r="6.25"/><path class="cls-1" d="M13.14,77.12H38a2.74,2.74,0,0,1,2.74,2.74v5.06a0,0,0,0,1,0,0H10.39a0,0,0,0,1,0,0V79.86A2.74,2.74,0,0,1,13.14,77.12Z"/><rect class="cls-1" x="1.5" y="84.92" width="83.54" height="8.61" rx="2.57"/></g></g></svg>