<svg xmlns="http://www.w3.org/2000/svg" viewBox="0 0 90.65 90.5"><defs><style>.cls-1,.cls-2{fill:none;stroke:#000;stroke-linejoin:round;stroke-width:3px;}.cls-1{stroke-linecap:round;}</style></defs><title>Asset 19</title><g id="Layer_2" data-name="Layer 2"><g id="Layer_2-2" data-name="Layer 2"><polyline class="cls-1" points="49.82 64.52 30.19 60.31 25.98 40.68"/><polyline class="cls-1" points="68.11 46.23 48.48 42.02 46.19 31.32"/><polyline class="cls-1" points="76.65 26.84 65.96 24.54 63.66 13.85"/><line class="cls-1" x1="1.5" y1="89" x2="73.85" y2="16.65"/><path class="cls-2" d="M84.44,6.52c-6.56-6.81-17.7-6.6-24.38.08l-6.9,6.9-.78,10.68L45.62,21,11.17,55.49a6.83,6.83,0,0,0-1.85,6.27l3.43,16,16,3.43A6.83,6.83,0,0,0,35,79.33l49.2-49.2A16.85,16.85,0,0,0,84.44,6.52Z"/></g></g></svg>