<svg xmlns="http://www.w3.org/2000/svg" viewBox="0 0 95.44 88.85"><defs><style>.cls-1{fill:none;stroke:#000;stroke-linecap:round;stroke-linejoin:round;stroke-width:3px;}</style></defs><title>Asset 29</title><g id="Layer_2" data-name="Layer 2"><g id="Layer_2-2" data-name="Layer 2"><path class="cls-1" d="M48.14,21.27,28.91,45.69a4.25,4.25,0,0,0-.66,4.05L37.8,76.31H58.47L68,49.74a4.25,4.25,0,0,0-.66-4.05Z"/><circle class="cls-1" cx="48.14" cy="53.04" r="5.71"/><circle class="cls-1" cx="48.14" cy="6.37" r="4.87"/><circle class="cls-1" cx="78.28" cy="29.92" r="4.87"/><circle class="cls-1" cx="17.99" cy="29.92" r="4.87"/><line class="cls-1" x1="48.14" y1="47.34" x2="48.14" y2="21.27"/><rect class="cls-1" x="30.32" y="76.31" width="35.62" height="11.04" rx="2.02"/><line class="cls-1" x1="84.19" y1="6.37" x2="53.01" y2="6.37"/><line class="cls-1" x1="11.24" y1="6.37" x2="42.43" y2="6.37"/><path class="cls-1" d="M53,6.72A33.67,33.67,0,0,1,78.28,25.05"/><path class="cls-1" d="M18,25.05A33.69,33.69,0,0,1,43.28,6.72"/><rect class="cls-1" x="84.19" y="1.5" width="9.74" height="9.74" rx="2.03"/><rect class="cls-1" x="1.5" y="1.5" width="9.74" height="9.74" rx="2.03"/></g></g></svg>