<svg xmlns="http://www.w3.org/2000/svg" viewBox="0 0 49.86 96.12"><defs><style>.cls-1,.cls-2{fill:none;stroke:#000;stroke-linejoin:round;stroke-width:3px;}.cls-2{stroke-linecap:round;}</style></defs><title>Asset 27</title><g id="Layer_2" data-name="Layer 2"><g id="Layer_2-2" data-name="Layer 2"><path class="cls-1" d="M42.84,10.84l-4.7,61.25a5.39,5.39,0,0,1-5.38,5.1H17.1a5.39,5.39,0,0,1-5.38-5.1L7,10.84"/><path class="cls-1" d="M17,77.19H32.83a0,0,0,0,1,0,0V91.63a3,3,0,0,1-3,3H20a3,3,0,0,1-3-3V77.19A0,0,0,0,1,17,77.19Z"/><rect class="cls-1" x="1.5" y="1.5" width="46.86" height="9.34" rx="1.39"/><circle class="cls-1" cx="24.93" cy="39.35" r="9.27"/><line class="cls-2" x1="7.67" y1="19.31" x2="23" y2="19.31"/><line class="cls-2" x1="29.18" y1="19.31" x2="33.64" y2="19.31"/></g></g></svg>