<svg xmlns="http://www.w3.org/2000/svg" viewBox="0 0 72.71 96.12"><defs><style>.cls-1,.cls-2{fill:none;stroke:#000;stroke-linejoin:round;stroke-width:3px;}.cls-2{stroke-linecap:round;}</style></defs><title>Asset 7</title><g id="Layer_2" data-name="Layer 2"><g id="Layer_2-2" data-name="Layer 2"><path class="cls-1" d="M71.21,36.35a34.86,34.86,0,1,0-52.6,30,6.39,6.39,0,0,1,3.05,5.51V85.7a8.92,8.92,0,0,0,8.92,8.92H42.13a8.92,8.92,0,0,0,8.92-8.92V71.81a6.31,6.31,0,0,1,3.05-5.46A34.83,34.83,0,0,0,71.21,36.35Z"/><line class="cls-1" x1="21.66" y1="71.86" x2="51.05" y2="71.86"/><line class="cls-2" x1="21.66" y1="82.12" x2="30.2" y2="82.12"/><line class="cls-2" x1="42.51" y1="82.12" x2="51.05" y2="82.12"/><path class="cls-2" d="M36.35,36.15h0a5.49,5.49,0,0,1,5.49,5.49V71.86a0,0,0,0,1,0,0h-11a0,0,0,0,1,0,0V41.64A5.49,5.49,0,0,1,36.35,36.15Z"/><line class="cls-2" x1="36.35" y1="27.4" x2="36.35" y2="19.43"/><line class="cls-2" x1="26.65" y1="30.22" x2="21.01" y2="24.58"/><line class="cls-2" x1="46.06" y1="30.22" x2="51.7" y2="24.58"/><line class="cls-2" x1="30.86" y1="49.63" x2="41.85" y2="49.63"/></g></g></svg>