<svg xmlns="http://www.w3.org/2000/svg" viewBox="0 0 69.25 96.12"><defs><style>.cls-1,.cls-2{fill:none;stroke:#000;stroke-linejoin:round;stroke-width:3px;}.cls-2{stroke-linecap:round;}</style></defs><title>Asset 30</title><g id="Layer_2" data-name="Layer 2"><g id="Layer_2-2" data-name="Layer 2"><rect class="cls-1" x="1.5" y="1.5" width="52.76" height="18.14" rx="4.4"/><path class="cls-2" d="M54.26,10.57h10A3.47,3.47,0,0,1,67.75,14V25.92a3.47,3.47,0,0,1-2.62,3.36L30.5,38.07a3.47,3.47,0,0,0-2.62,3.36v8.81"/><path class="cls-2" d="M25.54,50.24h4.68a2.58,2.58,0,0,1,2.58,2.58v7.27a0,0,0,0,1,0,0H23a0,0,0,0,1,0,0V52.82A2.58,2.58,0,0,1,25.54,50.24Z"/><path class="cls-2" d="M21.56,60.09H34.2a1.29,1.29,0,0,1,1.29,1.29v27.5a5.75,5.75,0,0,1-5.75,5.75H26a5.75,5.75,0,0,1-5.75-5.75V61.37a1.29,1.29,0,0,1,1.29-1.29Z"/><line class="cls-2" x1="10.16" y1="1.5" x2="10.16" y2="9.64"/><line class="cls-2" x1="20.74" y1="1.5" x2="20.74" y2="6.34"/><line class="cls-2" x1="32.81" y1="1.5" x2="32.81" y2="12.29"/><line class="cls-2" x1="41.37" y1="1.5" x2="41.37" y2="7.79"/></g></g></svg>