<svg xmlns="http://www.w3.org/2000/svg" viewBox="0 0 84.01 96.37"><defs><style>.cls-1,.cls-2{fill:none;stroke:#000;stroke-linejoin:round;stroke-width:3px;}.cls-2{stroke-linecap:round;}</style></defs><title>Asset 11</title><g id="Layer_2" data-name="Layer 2"><g id="Layer_2-2" data-name="Layer 2"><path class="cls-1" d="M6,37.93H82.51a0,0,0,0,1,0,0V90.72a4.16,4.16,0,0,1-4.16,4.16H10.13A4.16,4.16,0,0,1,6,90.72V37.93A0,0,0,0,1,6,37.93Z"/><path class="cls-1" d="M8.81,5.11H77a4.16,4.16,0,0,1,4.16,4.16v15a0,0,0,0,1,0,0H4.65a0,0,0,0,1,0,0v-15A4.16,4.16,0,0,1,8.81,5.11Z" transform="translate(-1.32 4.67) rotate(-6.13)"/><line class="cls-1" x1="5.97" y1="57.1" x2="82.51" y2="57.1"/><line class="cls-1" x1="22" y1="37.93" x2="11.61" y2="57.1"/><line class="cls-1" x1="35.48" y1="37.93" x2="25.08" y2="57.1"/><line class="cls-1" x1="48.95" y1="37.93" x2="38.56" y2="57.1"/><line class="cls-1" x1="62.43" y1="37.93" x2="52.04" y2="57.1"/><line class="cls-1" x1="75.91" y1="37.93" x2="65.52" y2="57.1"/><line class="cls-1" x1="21.83" y1="26.6" x2="9.45" y2="8.65"/><line class="cls-1" x1="35.23" y1="25.16" x2="22.85" y2="7.21"/><line class="cls-1" x1="48.63" y1="23.72" x2="36.25" y2="5.77"/><line class="cls-1" x1="62.03" y1="22.28" x2="49.65" y2="4.33"/><line class="cls-1" x1="75.43" y1="20.84" x2="63.05" y2="2.89"/><circle class="cls-1" cx="6.31" cy="33.12" r="4.81"/><line class="cls-2" x1="23.44" y1="68.64" x2="65.04" y2="68.64"/><line class="cls-2" x1="23.44" y1="80.18" x2="65.04" y2="80.18"/></g></g></svg>