<svg xmlns="http://www.w3.org/2000/svg" viewBox="0 0 96.12 93.11"><defs><style>.cls-1{fill:none;stroke:#000;stroke-linejoin:round;stroke-width:3px;}</style></defs><title>Asset 8</title><g id="Layer_2" data-name="Layer 2"><g id="Layer_2-2" data-name="Layer 2"><polygon class="cls-1" points="80.15 91.61 1.5 91.61 1.5 13.31 80.15 91.61"/><polygon class="cls-1" points="44.02 75.74 16.4 75.74 16.4 48.24 44.02 75.74"/><path class="cls-1" d="M41.38-4.64H61a0,0,0,0,1,0,0V63.8a5.44,5.44,0,0,1-5.44,5.44H46.82a5.44,5.44,0,0,1-5.44-5.44V-4.64a0,0,0,0,1,0,0Z" transform="translate(110.2 18.95) rotate(135)"/><polygon class="cls-1" points="84.23 51.49 94.62 75.74 70.37 65.35 84.23 51.49"/><line class="cls-1" x1="89.43" y1="63.62" x2="82.5" y2="70.55"/><line class="cls-1" x1="41.25" y1="8.52" x2="27.4" y2="22.37"/><line class="cls-1" x1="34.32" y1="15.45" x2="77.3" y2="58.42"/></g></g></svg>