<svg xmlns="http://www.w3.org/2000/svg" viewBox="0 0 62.79 95.63"><defs><style>.cls-1{fill:none;stroke:#000;stroke-linecap:round;stroke-linejoin:round;stroke-width:3px;}</style></defs><title>Asset 23</title><g id="Layer_2" data-name="Layer 2"><g id="Layer_2-2" data-name="Layer 2"><rect class="cls-1" x="5.06" y="36.26" width="52.67" height="51.26"/><path class="cls-1" d="M30.54,36.26H5.26V53.41a4.21,4.21,0,1,0,8.42,0V45.87a4.22,4.22,0,1,0,8.43,0V59.49a4.22,4.22,0,0,0,4.21,4.22h0a4.22,4.22,0,0,0,4.22-4.22V53.41a4.21,4.21,0,0,0,8.42,0V36.26Z"/><rect class="cls-1" x="1.5" y="29.65" width="59.79" height="6.61" rx="3.3"/><rect class="cls-1" x="1.5" y="87.52" width="59.79" height="6.61" rx="3.3"/><path class="cls-1" d="M31.39,1.5h0A21.42,21.42,0,0,1,52.81,22.92v6.74a0,0,0,0,1,0,0H10a0,0,0,0,1,0,0V22.92A21.42,21.42,0,0,1,31.39,1.5Z"/></g></g></svg>