<svg xmlns="http://www.w3.org/2000/svg" viewBox="0 0 512 512"><title>Digital Designer</title><g id="Degital_grahpic_3" data-name="Degital grahpic 3"><path d="M451.5,57.88H51.5a30,30,0,0,0-30,30v252a18,18,0,0,0,18,18h172v27.3a50.67,50.67,0,0,1-22.91,42.46l-.07,0a14.27,14.27,0,0,0,7.81,26.2h107.8a14,14,0,0,0,7.59-25.78l-.05,0a52.23,52.23,0,0,1-24.17-44.18v-26H402.63a6,6,0,0,0,0-12H39.5a6,6,0,0,1-6-6v-252a18,18,0,0,1,18-18h400a18,18,0,0,1,18,18v252a6,6,0,0,1-6,6H427a6,6,0,0,0,0,12H463.5a18,18,0,0,0,18-18v-252A30,30,0,0,0,451.5,57.88Zm-176,300v26a64.17,64.17,0,0,0,29.67,54.26l0,0a2,2,0,0,1-1.08,3.7H196.33a2.27,2.27,0,0,1-2.16-1.62,2.29,2.29,0,0,1,.92-2.54h0a62.6,62.6,0,0,0,28.4-52.53v-27.3Z"/><path d="M323.94,95.62a17.89,17.89,0,0,0-6.73-4.23h0a17.79,17.79,0,0,0-11.93,0h0a17.89,17.89,0,0,0-6.73,4.23l-38.56,38.56a17.89,17.89,0,0,0-4.35,18.42L262,171.88l11.39-3.8L267,148.81a6,6,0,0,1,1.45-6.14l36.81-36.81v45.87a19.07,19.07,0,1,0,12,0V105.86L354,142.67a6,6,0,0,1,1.45,6.14L333,216.11H289.38l-10.5-31.53a6,6,0,1,0-11.39,3.79l9.8,29.4a19.07,19.07,0,0,0,7.77,36.49h.54v26.12a18,18,0,0,0,18,18h15.22a18,18,0,0,0,18-18V254.26h.53a19.07,19.07,0,0,0,7.77-36.49l21.73-65.17a17.91,17.91,0,0,0-4.35-18.42Zm-12.73,81.27a7.08,7.08,0,1,1,7.07-7.07A7.08,7.08,0,0,1,311.21,176.89Zm13.61,103.49a6,6,0,0,1-6,6H303.6a6,6,0,0,1-6-6V254.26h27.22Zm19.61-45.2a7.08,7.08,0,0,1-7.08,7.08H285.06a7.08,7.08,0,0,1,0-14.15h52.29a7.07,7.07,0,0,1,7.08,7.07Z"/><path d="M228.92,117.29a22,22,0,1,0-28,21.16v32.84h-10a6,6,0,0,0-6,6v9.86a88.81,88.81,0,0,0-88,88.81v9.33a6,6,0,0,0,12,0V276a76.78,76.78,0,0,1,76-76.8v10.13a6,6,0,0,0,6,6h10v35.43a22,22,0,1,0,12,0V215.29h10a6,6,0,0,0,6-6v-32a6,6,0,0,0-6-6h-10V138.45A22,22,0,0,0,228.92,117.29Zm-12,154.59a10,10,0,1,1-10-10A10,10,0,0,1,216.92,271.88Zm0-68.59h-20v-20h20Zm-20-86a10,10,0,1,1,10,10A10,10,0,0,1,196.92,117.29Z"/><path d="M465.5,325.88v-234a18,18,0,0,0-18-18H55.5a18,18,0,0,0-18,18v234h428Zm-416-12v-222a6,6,0,0,1,6-6h392a6,6,0,0,1,6,6v222Z"/></g></svg>