<svg xmlns="http://www.w3.org/2000/svg" viewBox="0 0 512 512"><defs><style>.cls-1{fill:#0d0d0d;}</style></defs><title>Design Folder</title><g id="Design_Folder_3" data-name="Design Folder 3"><path class="cls-1" d="M469.88,193.25a29.8,29.8,0,0,0-21.22-8.79H215.58a17.94,17.94,0,0,1-12.73-5.27,18.13,18.13,0,0,1-5.27-12.73v-32a30,30,0,0,0-30-30H80.66a30,30,0,0,0-30,30v288a30,30,0,0,0,30,30h368a30,30,0,0,0,30-30v-208A29.79,29.79,0,0,0,469.88,193.25ZM448.66,440.46h-306V420.68a6,6,0,0,0-12,0v19.78h-36V223.8l17-35.92,19,36.06V398.46a6,6,0,0,0,12,0v-176a6.11,6.11,0,0,0-.69-2.81l-25.33-48a6,6,0,0,0-10.74.24l-22.66,48a6,6,0,0,0-.58,2.57v218h-2a18,18,0,0,1-18-18v-288a18,18,0,0,1,18-18h86.92a18,18,0,0,1,18,18v32a30.18,30.18,0,0,0,8.79,21.21,29.8,29.8,0,0,0,21.21,8.79H448.66a18,18,0,0,1,18,18v178H454.44l-8.88-12.57a6,6,0,1,0-9.8,6.92l4,5.65H192.86l69.88-125.78,58.71,102.75a6,6,0,0,0,9.84.84L379.21,312l42.5,54.34a6,6,0,1,0,9.45-7.39l-47.1-60.23a6,6,0,0,0-9.36-.12l-47.14,57.29L267.87,251.48a6,6,0,0,0-5.21-3h0a6,6,0,0,0-5.21,3.08l-80,144a6,6,0,0,0,5.24,8.92h284v18A18,18,0,0,1,448.66,440.46Z"/></g></svg>