<svg xmlns="http://www.w3.org/2000/svg" viewBox="0 0 512 512"><title>Font style, Font type</title><g id="Typograhpy_3" data-name="Typograhpy 3"><path d="M254.17,453.6H241a25.73,25.73,0,0,1-25.71-25.71V343a6,6,0,0,1,12,0v84.89A13.73,13.73,0,0,0,241,441.6h13.14a13.73,13.73,0,0,0,13.71-13.71V126.6a30,30,0,0,1,30-30h56.3a65.62,65.62,0,0,1,46.67,19.33l14.51,14.52a6,6,0,0,0,10.24-4.25V74a18,18,0,0,0-18-18H87.6a18,18,0,0,0-18,18V126.2a6,6,0,0,0,10.24,4.25L94.4,115.89A65.39,65.39,0,0,1,141,96.6h56.36a30,30,0,0,1,30,30V319.33a6,6,0,0,1-12,0V126.6a18,18,0,0,0-18-18H141a53.45,53.45,0,0,0-38.07,15.77L88.33,138.93A18,18,0,0,1,57.6,126.2V74a30,30,0,0,1,30-30h320a30,30,0,0,1,30,30V126.2a18,18,0,0,1-30.73,12.73l-14.51-14.52a53.68,53.68,0,0,0-38.18-15.81h-56.3a18,18,0,0,0-18,18V427.89A25.73,25.73,0,0,1,254.17,453.6Zm137-11.61h-9a18,18,0,0,1-18-18V365A17,17,0,0,1,357,332.91l-17.62-52.86a17.91,17.91,0,0,1,4.35-18.42l30.23-30.23a17.85,17.85,0,0,1,11.26-5.22,6.09,6.09,0,0,1,2.94,0,17.83,17.83,0,0,1,11.26,5.22h0l30.24,30.23A17.91,17.91,0,0,1,434,280.05c-4.33,13-13.54,40.63-17.62,52.86a17,17,0,0,1,9.29,15.14h0a17,17,0,0,1-16.49,17v29.78a6,6,0,1,1-12,0V365.05h-21V424a6,6,0,0,0,1.76,4.24,6,6,0,0,0,4.24,1.76h9a6,6,0,0,0,6-6V411.78a6,6,0,0,1,12,0V424a18,18,0,0,1-18,18Zm12-88.94h5.5a5,5,0,0,0,5-5h0a5,5,0,0,0-5-5h-44a5,5,0,0,0,0,10Zm-34.15-22h35.32C408,320.1,418,290,422.59,276.25a6,6,0,0,0-1.45-6.14l-28.48-28.47V277.2a17,17,0,1,1-12,0V241.64l-28.48,28.47a6,6,0,0,0-1.45,6.14Zm17.66-42.95a5,5,0,1,0,5,5A5,5,0,0,0,386.66,288.11Zm67.09-67.6a20.49,20.49,0,0,1-19.56-14.45h-27v3.54a6,6,0,0,1-6,6h-24a6,6,0,0,1-6-6v-3.54H339.83a20.46,20.46,0,1,1,0-12h31.34V185.6a6,6,0,0,1,6-6h24a6,6,0,0,1,6,6v8.46h27a20.46,20.46,0,1,1,19.56,26.45Zm0-28.91a8.46,8.46,0,1,0,8.46,8.46A8.47,8.47,0,0,0,453.75,191.6Zm-133.47,0a8.46,8.46,0,1,0,8.45,8.46A8.47,8.47,0,0,0,320.28,191.6Zm62.89,12h12v-12h-12Z"/></g></svg>