<svg xmlns="http://www.w3.org/2000/svg" viewBox="0 0 512 512"><title>pantone color</title><g id="Pantone_3" data-name="Pantone 3"><path d="M455.69,500.81H32a9.89,9.89,0,0,1-7.08-2.94A10,10,0,0,1,22,490.81V375.41a10,10,0,0,1,.26-2.25,6,6,0,0,1,.54-4.75l36.31-62.88,0-.1.06-.09L211.67,41.25a30,30,0,0,1,41-11L318,68a30.23,30.23,0,0,1,14,18.21,29.87,29.87,0,0,1-3,22.77l-27.59,47.78a6,6,0,0,1-10.39-6L318.53,103a17.84,17.84,0,0,0,1.8-13.66A18.1,18.1,0,0,0,312,78.36l-65.3-37.7a18,18,0,0,0-24.59,6.59l-57,98.69,96.47,55.7L280,169.69a6,6,0,0,1,10.39,6L269,212.75a.41.41,0,0,0-.05.09l-.06.09L253,240.53l26.15-15.1.09-.05.1-.06,97.86-56.5a36.86,36.86,0,0,1,50.34,13.49l30.85,53.43a36.86,36.86,0,0,1-13.49,50.34l-39.77,23a6,6,0,0,1-6-10.4l39.77-22.95A24.84,24.84,0,0,0,448,241.74l-30.84-53.43a24.86,24.86,0,0,0-33.95-9.1L290.4,232.77l55.7,96.47,35.79-20.66a6,6,0,1,1,6,10.39l-80.44,46.44H455.69a29.8,29.8,0,0,1,21.22,8.79,30.22,30.22,0,0,1,8.78,21.21v75.4a30,30,0,0,1-30,30Zm-114-12h114a17.88,17.88,0,0,0,12.73-5.27,18.13,18.13,0,0,0,5.27-12.73v-75.4a18.08,18.08,0,0,0-5.27-12.72,17.89,17.89,0,0,0-12.73-5.28h-114v16.47a6,6,0,0,1-12,0V377.41H156.63V424a6,6,0,0,1-12,0V377.41H34v111.4H144.63V443a6,6,0,0,1,12,0v45.8h173.1V414a6,6,0,0,1,12,0ZM153.25,365.41h130.2l52.25-30.17L280,238.77,130.1,325.32Zm-92.6,0h78.74l-19.68-34.09Zm5.88-48.78-27.3,47.29L93.84,332.4Zm6-10.39,32.64,18.85a4.44,4.44,0,0,1,.62.41l13-7.53.07,0,.08-.05,113.19-65.35L255.55,212l-96.47-55.7Zm19,156a29.14,29.14,0,1,1,29.14-29.14A29.17,29.17,0,0,1,91.51,462.25Zm0-46.28a17.14,17.14,0,1,0,17.14,17.14A17.16,17.16,0,0,0,91.51,416Z"/></g></svg>