<svg xmlns="http://www.w3.org/2000/svg" viewBox="0 0 512 512"><title>Pen tool</title><g id="Paint_3" data-name="Paint 3"><path d="M435.17,199.7a37.05,37.05,0,1,0-37.05,37.05A37.09,37.09,0,0,0,435.17,199.7Zm-62.1,0a25.05,25.05,0,1,1,25.05,25.05A25.08,25.08,0,0,1,373.07,199.7Z"/><path d="M251.82,205.89a5.64,5.64,0,0,0-.31.53,11,11,0,0,1-18.62,1.23L207.82,172.5a6,6,0,0,0-10.24.79c-.8,1.57-19.15,39.11,5,88.47,12.64,25.78,27.49,41,44.12,45.19a39,39,0,0,0,9.67,1.21c14.79,0,26.46-8.32,32-12.3,13-9.29,20-20.58,20.82-33.55.64-10.49-2.84-32.26-33.34-60.18a15.7,15.7,0,0,0-24.11,3.76Zm16,5.12c26.79,24.53,29.94,42.22,29.43,50.58-.57,9.3-5.74,17.31-15.87,24.54-5.78,4.13-17.81,12.7-31.73,9.19-13.06-3.3-25.26-16.37-36.28-38.85-14.62-29.8-12-54.46-8.65-67.59l18.37,25.74a23,23,0,0,0,38.71-2.09c.1-.15.2-.32.29-.48a3.7,3.7,0,0,1,5.73-1Z"/><path d="M302.12,146.75a37.05,37.05,0,1,0-37.05-37A37.09,37.09,0,0,0,302.12,146.75Zm0-62.1a25,25,0,1,1-25.05,25A25.08,25.08,0,0,1,302.12,84.65Z"/><path d="M174.12,90.65a37.05,37.05,0,1,0,37,37.05A37.09,37.09,0,0,0,174.12,90.65Zm0,62.1a25,25,0,1,1,25-25A25.08,25.08,0,0,1,174.12,152.75Z"/><path d="M135.17,225.7a37.05,37.05,0,1,0-37,37.05A37.09,37.09,0,0,0,135.17,225.7Zm-62.1,0a25.05,25.05,0,1,1,25.05,25.05A25.08,25.08,0,0,1,73.07,225.7Z"/><path d="M436.2,103A247.53,247.53,0,0,0,259.3,28.65C124.06,28.65,14,138.69,14,274A243,243,0,0,0,64.09,422.41a6,6,0,1,0,9.55-7.27A231.1,231.1,0,0,1,26,274C26,145.31,130.67,40.65,259.3,40.65a235.55,235.55,0,0,1,168.33,70.78c43.14,44,66.2,101.73,64.93,162.4-.35,16.79-5.92,29.68-17,39.39C454,332,410.72,338.29,350.27,331.4l-28.36-46.59a6,6,0,0,0-10-.43l-8.79,12a51.26,51.26,0,0,1-25.9,18.51l-10.18,3.17c-7.35-1.62-14.45-3.34-21.14-5.13a36.94,36.94,0,0,0-47.36,36.54c.66,24.93,1.64,56.21,2.5,83.82l0,.38a43.06,43.06,0,0,1-66,37.75,234.48,234.48,0,0,1-45.8-37.8,6,6,0,0,0-8.75,8.22,246.92,246.92,0,0,0,48.15,39.73,55,55,0,0,0,84.4-48.28v-.38c-.86-27.59-1.84-58.86-2.5-83.78a24.92,24.92,0,0,1,32-24.67l.16.05c5.49,1.46,11.25,2.88,17.19,4.25l.12.17,79.28,95.56a6,6,0,1,0,9.24-7.66L275,328.16l5.82-1.82a63.32,63.32,0,0,0,32-22.87l3.49-4.76L417.59,465.07a11.25,11.25,0,0,1-3,14.91l-.11.08a11.25,11.25,0,0,1-15.08-2l-37.32-45-9.23,7.66,37.31,45a23.28,23.28,0,0,0,31.34,4.07l0,0a23.28,23.28,0,0,0,6.31-30.93L358.11,344.27c59.89,5.71,102-1.68,125.3-22,13.61-11.89,20.73-28.1,21.15-48.18C505.9,210.16,481.62,149.41,436.2,103Z"/></g></svg>