<svg xmlns="http://www.w3.org/2000/svg" viewBox="0 0 512 512"><title>Pen and brush outline</title><g id="Pencil_pen_3" data-name="Pencil pen 3"><path d="M201.68,184.47h.09c16,0,28.25-5.12,36.42-15.22,6.62-8.17,16.43-27.91,7.82-68.35A15.71,15.71,0,0,0,224.18,90a5.22,5.22,0,0,0-.54.24,11,11,0,0,1-15.87-9.8V37.22a6,6,0,0,0-8.8-5.31c-1.56.82-38.3,20.72-47.26,75-4.69,28.33-1.43,49.33,9.67,62.41C174.22,184.42,193.35,184.47,201.68,184.47Zm-38.13-75.65c5.41-32.75,21.85-51.3,32.22-60V80.4a23,23,0,0,0,32.73,20.78A4.67,4.67,0,0,0,229,101a3.71,3.71,0,0,1,5.27,2.48c7.57,35.53-.15,51.76-5.41,58.27-5.87,7.25-14.73,10.77-27.18,10.77h-.08c-7.12,0-21.83,0-31.08-10.95C161.81,151.25,159.46,133.52,163.55,108.82Z"/><path d="M439.5,364.47H333.92L329.58,233h11a20.71,20.71,0,0,0,20.72-20.71v-2.66a20.71,20.71,0,0,0-20.72-20.71h-9.06l27.52-82.57a18,18,0,0,0-2.69-16.51L321.63,43.65a18.09,18.09,0,0,0-14.38-7.18h0a18.12,18.12,0,0,0-14.39,7.22L258.33,89.86a18,18,0,0,0-2.67,16.44l27.41,82.61h-9.28a20.69,20.69,0,0,0-20.71,20.71v2.66A20.69,20.69,0,0,0,273.79,233h11.38l-4.52,131.48h-55.2l10-169.65a6,6,0,0,0-8.27-5.9l-4.84,2a65.22,65.22,0,0,1-49.61,0l-5-2a6,6,0,0,0-8.25,5.91l10,169.65H71.5a30,30,0,0,0-30,30v64a30,30,0,0,0,30,30h368a30,30,0,0,0,30-30v-64A30,30,0,0,0,439.5,364.47ZM307.32,120.69a6,6,0,1,1-6,6A6,6,0,0,1,307.32,120.69ZM267.94,97l33.27-44.52v57.26a18,18,0,1,0,12-.08V52.42L346.8,97a6,6,0,0,1,.9,5.51l-28.66,86-23.35.32-28.64-86.33A6,6,0,0,1,267.94,97Zm-.31,121.4a8.62,8.62,0,0,1-2.55-6.16v-2.66a8.71,8.71,0,0,1,8.71-8.71h66.83a8.71,8.71,0,0,1,8.72,8.71v2.66a8.71,8.71,0,0,1-8.72,8.71H273.79A8.64,8.64,0,0,1,267.63,218.44ZM317.58,233l6.91,209.63a17.27,17.27,0,1,1-34.52,0L297.18,233ZM222.9,203.51,208.39,450.14a11,11,0,0,1-21.9,0L172,203.5A77,77,0,0,0,222.9,203.51Zm234.6,255a18,18,0,0,1-18,18H71.5a18,18,0,0,1-18-18v-64a18,18,0,0,1,18-18h18v26a6,6,0,0,0,12,0v-26h21.33v58a6,6,0,1,0,12,0v-58H153.5v26a6,6,0,0,0,12,0v-26h4.63l4.38,74.38a23,23,0,0,0,45.86,0l4.37-74.38h55.5L278,442.21a29.27,29.27,0,1,0,58.51,0l-2.17-65.75h12.87v58a6,6,0,0,0,12,0v-58h18.67v26a6,6,0,0,0,12,0v-26h21.33v58a6,6,0,0,0,12,0v-58H439.5a18,18,0,0,1,18,18Z"/></g></svg>