<svg xmlns="http://www.w3.org/2000/svg" viewBox="0 0 512 512"><title>Tablet design, art and design</title><g id="Tablet_3" data-name="Tablet 3"><path d="M455.66,65.63H436.05L438.76,64a6,6,0,0,0-.29-10.44L417.29,42.33a6,6,0,0,0-2.81-.7H87.66a18,18,0,0,0-18,18,18.06,18.06,0,0,0,1,6h-15a30,30,0,0,0-30,30v31.94a6,6,0,1,0,12,0V95.63a18,18,0,0,1,18-18h400a18,18,0,0,1,18,18v360a18,18,0,0,1-18,18h-400a18,18,0,0,1-18-18c0-27.29,0-71.56,0-120.47,0-60.38.06-127.84.06-179.16a6,6,0,0,0-12,0c0,51.32,0,118.77-.06,179.15,0,48.92,0,93.19,0,120.48a30,30,0,0,0,30,30h400a30,30,0,0,0,30-30v-360A30,30,0,0,0,455.66,65.63ZM83.41,63.86a6,6,0,0,1,4.25-10.23h242v12h-242A6,6,0,0,1,83.41,63.86Zm258.25,1.77v-12H413l10.49,5.56-10.67,6.44Z"/><path d="M428.22,149.63a25.44,25.44,0,0,0,25.44-25.44v-1.52a25.44,25.44,0,0,0-25.44-25.44H83.1a25.44,25.44,0,0,0-25.44,25.44v1.52A25.44,25.44,0,0,0,83.1,149.63Zm-262.56-12v-28.4h180v28.4Zm272.06-24.46a13.33,13.33,0,0,1,3.94,9.5v1.52a13.43,13.43,0,0,1-13.44,13.44H357.66v-28.4h70.56A13.34,13.34,0,0,1,437.72,113.17Zm-368.06,11v-1.52A13.43,13.43,0,0,1,83.1,109.23h70.56v28.4H83.1a13.45,13.45,0,0,1-13.44-13.44Z"/><path d="M57.66,431.63a30,30,0,0,0,30,30h336a30,30,0,0,0,30-30v-8.32a6,6,0,0,0-12,0v8.32a18,18,0,0,1-18,18h-336a18,18,0,0,1-18-18v-240a18,18,0,0,1,18-18h336a18,18,0,0,1,18,18V383.18c0,1.9.1,4.9.11,5a6,6,0,1,0,12-.42s-.1-2.92-.1-4.61V191.63a30,30,0,0,0-30-30h-336a30,30,0,0,0-30,30Z"/><circle cx="119.66" cy="215.63" r="12"/><circle cx="407.66" cy="215.63" r="12"/><circle cx="119.66" cy="415.63" r="12"/><circle cx="407.66" cy="415.63" r="12"/></g></svg>