<svg xmlns="http://www.w3.org/2000/svg" viewBox="0 0 512 512"><title>Tablet designer</title><g id="Tablet_design_3" data-name="Tablet design 3"><path d="M391.83,485.51h-304a30,30,0,0,1-30-30V116a6,6,0,0,1,12,0V455.51a18,18,0,0,0,18,18h304a18,18,0,0,0,18-18v-400a18,18,0,0,0-18-18h-304a18,18,0,0,0-18,18V95.87a6,6,0,0,1-12,0V55.51a30,30,0,0,1,30-30h258v-2a6,6,0,0,1,6-6h32a6,6,0,0,1,6,6v2h2a30,30,0,0,1,30,30v18h2a6,6,0,0,1,6,6v48a6,6,0,0,1-6,6h-2v322A30,30,0,0,1,391.83,485.51Zm-4-16h-296a18,18,0,0,1-18-18v-132a6,6,0,0,1,12,0v132a6,6,0,0,0,6,6h296a6.06,6.06,0,0,0,4.24-1.75,6,6,0,0,0,1.76-4.25v-392a6,6,0,0,0-6-6h-296a6,6,0,0,0-6,6v228a6,6,0,0,1-12,0v-228a18,18,0,0,1,18-18h296a18,18,0,0,1,18,18v392a18,18,0,0,1-18,18Zm-136-32h-24a18,18,0,0,1-18-18v-94h-3.29a20.73,20.73,0,0,1-20.71-20.71v-2.57a20.76,20.76,0,0,1,14-19.62l-27.39-82.16A17.91,17.91,0,0,1,176.83,182l50.27-50.28a18,18,0,0,1,25.45,0L302.83,182a17.89,17.89,0,0,1,4.35,18.41l-27.39,82.17a20.76,20.76,0,0,1,14,19.62v2.57a20.73,20.73,0,0,1-20.72,20.71h-3.28v94A18,18,0,0,1,251.83,437.51Zm-30-112v94a6,6,0,0,0,6,6h24a6,6,0,0,0,6-6v-94Zm42-12h9.28a8.73,8.73,0,0,0,8.72-8.71v-2.57a8.73,8.73,0,0,0-8.72-8.72H206.54a8.73,8.73,0,0,0-8.71,8.72v2.57a8.72,8.72,0,0,0,8.71,8.71Zm-51.68-32H267.5l28.29-84.86a6,6,0,0,0-1.45-6.14L246,142.17v60.22a22,22,0,1,1-12-.09V141.83l-48.69,48.68a6,6,0,0,0-1.44,6.14Zm27.68-68a10,10,0,1,0,10,10A10,10,0,0,0,239.83,213.51Zm97.66-89.66a20.37,20.37,0,0,1-19.43-14.34H257.48v1.31a6,6,0,0,1-6,6H229.83a6,6,0,0,1-6-6v-1.31l-61.36.46a20.32,20.32,0,1,1,.29-12l61-.45h0V89.18a6,6,0,0,1,6-6h21.65a6,6,0,0,1,6,6v8.33h60.58a20.34,20.34,0,1,1,19.43,26.34Zm0-28.67a8.34,8.34,0,1,0,8.34,8.33A8.34,8.34,0,0,0,337.49,95.18Zm-194.3,0a8.34,8.34,0,1,0,8.33,8.33A8.35,8.35,0,0,0,143.19,95.18Zm92.64,9.64h9.65V95.18h-9.65Z"/></g></svg>