<svg xmlns="http://www.w3.org/2000/svg" viewBox="0 0 512 512"><title>Vector Oultine</title><g id="Vector_3" data-name="Vector 3"><path d="M260.17,155.5a17.79,17.79,0,0,0-11.93,0h0a18,18,0,0,0-6.73,4.23L184.18,217a17.93,17.93,0,0,0-4.35,18.42l9.5,28.47,11.38-3.79-9.49-28.48a6,6,0,0,1,1.45-6.14L248.21,170v69.06a23.75,23.75,0,1,0,12,0V170l55.53,55.54a6,6,0,0,1,1.45,6.14l-31.8,95.4H223L207.76,281.3a6,6,0,1,0-11.38,3.79l14.21,42.62a20.73,20.73,0,0,0-15.65,20.07v6.08a20.73,20.73,0,0,0,20.71,20.71h5.92V416.5a18,18,0,0,0,18,18h29.27a18,18,0,0,0,18-18V374.57h5.92a20.73,20.73,0,0,0,20.71-20.71v-6.08a20.73,20.73,0,0,0-15.65-20.07l30.76-92.25A17.91,17.91,0,0,0,324.23,217l-57.3-57.3a18,18,0,0,0-6.72-4.23h0Zm14.67,261a6,6,0,0,1-6,6H239.57a6,6,0,0,1-6-6V374.57h41.27Zm26.63-68.72v6.08a8.72,8.72,0,0,1-8.71,8.71H215.65a8.72,8.72,0,0,1-8.71-8.71v-6.08a8.73,8.73,0,0,1,8.71-8.72h77.11A8.73,8.73,0,0,1,301.47,347.78ZM266,262a11.76,11.76,0,1,1-11.75-11.76A11.76,11.76,0,0,1,266,262Z"/><path d="M450.21,270h-12.5a5.89,5.89,0,0,0,.72-3.76,186,186,0,0,0-368.54.67,6,6,0,0,0,.4,3.09H58.21a6,6,0,0,0-6,6v32a6,6,0,0,0,6,6H70.07a5.78,5.78,0,0,0-.24,2.63,185.81,185.81,0,0,0,32.55,82.78,6,6,0,1,0,9.79-6.94,173.92,173.92,0,0,1-30.45-77.42,6.15,6.15,0,0,0-.24-1.05h8.73a6,6,0,0,0,6-6V276a6,6,0,0,0-6-6H81.36a6.14,6.14,0,0,0,.42-1.48,174,174,0,0,1,344.77-.63,5.86,5.86,0,0,0,.71,2.11h-9.05a6,6,0,0,0-6,6v32a6,6,0,0,0,6,6H427a6.12,6.12,0,0,0-.41,1.48,174,174,0,0,1-301.77,92.85,6,6,0,1,0-8.92,8,186,186,0,0,0,322.58-99.27,6,6,0,0,0-.4-3.09h12.09a6,6,0,0,0,6-6V276A6,6,0,0,0,450.21,270Zm-366,32h-20V282h20Zm360,0h-20V282h20Z"/><path d="M71.38,90A26,26,0,0,0,96.32,71.34H229.38V84a6,6,0,0,0,6,6h40a6,6,0,0,0,6-6V71.34H412.09a26,26,0,1,0-.63-12H281.38V44a6,6,0,0,0-6-6h-40a6,6,0,0,0-6,6V59.34H97A26,26,0,1,0,71.38,90ZM437,50a14,14,0,1,1-14,14A14,14,0,0,1,437,50ZM241.38,50h28V78h-28Zm-170,0a14,14,0,1,1-14,14A14,14,0,0,1,71.38,50Z"/></g></svg>